<svg xmlns="http://www.w3.org/2000/svg" width="301" height="270" fill="none" viewBox="0 0 301 270">
  <g clip-path="url(#clip0)">
    <path fill="#F2F2F2" d="M281.648 147.104L66.226 239.63a6.019 6.019 0 01-4.616.051 6.052 6.052 0 01-3.304-3.237L1.478 103.084a4.46 4.46 0 01-.038-3.395 4.434 4.434 0 012.363-2.43L222.12 3.489a4.487 4.487 0 013.441-.039 4.51 4.51 0 012.462 2.413l56.798 133.29a6.082 6.082 0 01.051 4.634 6.055 6.055 0 01-3.225 3.317z"/>
    <path fill="#fff" d="M271.687 143.065L70.919 229.297c-2.943 1.264-6.296.041-7.476-2.726L13.956 110.44c-.874-2.052.189-4.484 2.37-5.42l203.467-87.392c2.217-.952 4.744-.03 5.633 2.056l49.461 116.07c1.179 2.767-.257 6.046-3.2 7.311z"/>
    <path fill="#84F3D9" d="M228.215 6.522L1.699 103.814.49 100.978a6.105 6.105 0 01-.05-4.65 6.073 6.073 0 013.236-3.326L219.06.492a6.04 6.04 0 014.632-.052 6.068 6.068 0 013.315 3.247l1.208 2.835z"/>
    <path fill="#fff" d="M10.022 96.836a1.57 1.57 0 001.566-1.572 1.57 1.57 0 00-1.566-1.572 1.57 1.57 0 00-1.566 1.572 1.57 1.57 0 001.566 1.572zM15.487 94.489a1.57 1.57 0 001.566-1.572 1.57 1.57 0 00-1.566-1.573 1.57 1.57 0 00-1.566 1.573 1.57 1.57 0 001.566 1.572zM20.953 92.141a1.57 1.57 0 001.566-1.572 1.57 1.57 0 00-1.566-1.572 1.57 1.57 0 00-1.566 1.572 1.57 1.57 0 001.566 1.572z"/>
    <path fill="#F2F2F2" d="M111.11 133.534l-26.775 11.5a6.014 6.014 0 01-4.615.051 6.049 6.049 0 01-3.304-3.237l-14.78-34.684a6.085 6.085 0 01-.05-4.634 6.052 6.052 0 013.224-3.317l26.774-11.5a6.017 6.017 0 014.616-.05 6.051 6.051 0 013.304 3.236l14.78 34.684a6.09 6.09 0 01.05 4.635 6.051 6.051 0 01-3.224 3.316zM156.415 114.075l-26.775 11.5a6.014 6.014 0 01-4.616.051 6.044 6.044 0 01-3.303-3.237l-14.78-34.684a6.083 6.083 0 01-.051-4.634 6.052 6.052 0 013.224-3.317l26.775-11.5a6.018 6.018 0 014.616-.05 6.05 6.05 0 013.303 3.236l14.78 34.685a6.082 6.082 0 01.051 4.634 6.054 6.054 0 01-3.224 3.316zM201.719 94.617l-26.774 11.5a6.019 6.019 0 01-4.616.051 6.054 6.054 0 01-3.304-3.238l-14.78-34.684a6.088 6.088 0 01-.051-4.634 6.053 6.053 0 013.225-3.317l26.774-11.5a6.018 6.018 0 014.616-.05 6.052 6.052 0 013.304 3.236l14.78 34.685a6.092 6.092 0 01.051 4.634 6.053 6.053 0 01-3.225 3.317zM133.977 187.195l-26.775 11.5a6.019 6.019 0 01-4.616.051 6.051 6.051 0 01-3.304-3.237l-14.78-34.685a6.085 6.085 0 01-.05-4.634 6.052 6.052 0 013.224-3.316l26.775-11.5a6.014 6.014 0 014.616-.051 6.05 6.05 0 013.303 3.237l14.78 34.684a6.083 6.083 0 01.051 4.634 6.053 6.053 0 01-3.224 3.317zM179.281 167.736l-26.774 11.5a6.014 6.014 0 01-4.616.051 6.049 6.049 0 01-3.304-3.237l-14.78-34.684a6.087 6.087 0 01-.051-4.634 6.052 6.052 0 013.225-3.317l26.774-11.5a6.019 6.019 0 014.616-.051 6.049 6.049 0 013.304 3.237l14.78 34.684a6.09 6.09 0 01.05 4.635 6.048 6.048 0 01-3.224 3.316zM224.586 148.277l-26.775 11.5a6.014 6.014 0 01-4.616.051 6.049 6.049 0 01-3.304-3.237l-14.78-34.684a6.087 6.087 0 01-.05-4.634 6.05 6.05 0 013.224-3.317l26.775-11.5a6.019 6.019 0 014.616-.051 6.05 6.05 0 013.303 3.237l14.78 34.684a6.085 6.085 0 01.051 4.635 6.054 6.054 0 01-3.224 3.316z"/>
    <path fill="#E6E6E6" d="M294.967 270H60.658a6.026 6.026 0 01-4.264-1.776 6.075 6.075 0 01-1.769-4.281V118.891a4.452 4.452 0 011.296-3.136 4.414 4.414 0 013.124-1.301h237.459a4.489 4.489 0 013.178 1.324 4.524 4.524 0 011.318 3.19v144.975a6.076 6.076 0 01-1.769 4.281 6.026 6.026 0 01-4.264 1.776z"/>
    <path fill="#fff" d="M287.391 262.353H69.021c-3.2 0-5.805-2.448-5.805-5.458V130.582c0-2.232 1.93-4.048 4.302-4.048h221.306c2.411 0 4.373 1.846 4.373 4.115v126.246c0 3.01-2.605 5.458-5.806 5.458z"/>
    <path fill="#84F3D9" d="M300.916 119.646H54.541v-3.084a6.095 6.095 0 011.776-4.294 6.05 6.05 0 014.279-1.781H294.86a6.05 6.05 0 014.279 1.781 6.094 6.094 0 011.776 4.294v3.084z"/>
    <path fill="#fff" d="M65.544 116.648a1.57 1.57 0 001.567-1.572 1.57 1.57 0 00-1.567-1.572 1.57 1.57 0 00-1.566 1.572 1.57 1.57 0 001.566 1.572zM71.49 116.648a1.57 1.57 0 001.565-1.572 1.57 1.57 0 00-1.566-1.572 1.57 1.57 0 00-1.566 1.572 1.57 1.57 0 001.566 1.572zM77.434 116.648A1.57 1.57 0 0079 115.076a1.57 1.57 0 00-1.566-1.572 1.57 1.57 0 00-1.566 1.572 1.57 1.57 0 001.566 1.572z"/>
    <path fill="#E6E6E6" d="M275.57 161.993H172.107c-4.142 0-7.5 3.371-7.5 7.53 0 4.159 3.358 7.53 7.5 7.53H275.57c4.143 0 7.501-3.371 7.501-7.53 0-4.159-3.358-7.53-7.501-7.53zM275.57 186.914H172.107c-4.142 0-7.5 3.371-7.5 7.53 0 4.159 3.358 7.53 7.5 7.53H275.57c4.143 0 7.501-3.371 7.501-7.53 0-4.159-3.358-7.53-7.501-7.53zM275.57 211.834H172.107c-4.142 0-7.5 3.371-7.5 7.53 0 4.159 3.358 7.53 7.5 7.53H275.57c4.143 0 7.501-3.371 7.501-7.53 0-4.159-3.358-7.53-7.501-7.53z"/>
    <path fill="#fff" d="M154.877 194.444a40.486 40.486 0 01-6.778 22.433 40.247 40.247 0 01-18.05 14.871 40.063 40.063 0 01-23.237 2.298 40.17 40.17 0 01-20.593-11.05 40.429 40.429 0 01-11.007-20.675 40.528 40.528 0 012.289-23.33 40.346 40.346 0 0114.813-18.121 40.106 40.106 0 0122.344-6.805 40.158 40.158 0 0128.436 11.83 40.472 40.472 0 0111.783 28.549z"/>
    <path fill="#52E9C5" d="M133.247 201.353c-.439 25.824-38.7 25.82-39.136-.001.439-25.823 38.7-25.819 39.136.001z"/>
    <path fill="#2F2E41" d="M112.902 209.368l-.02-.734c5.04.676 6.125-5.595 1.042-3.251l1.16-8.513.725.1-.987 7.241c5.352-.799 3.372 5.891-1.92 5.157zM123.33 197.595h-3.938v.734h3.938v-.734zM110.899 197.595h-3.938v.734h3.938v-.734zM120.022 228.82c.768-5.201-5.298-4.173-8.508-4.225a3.487 3.487 0 00-2.698 1.3 3.502 3.502 0 00-.695 2.922 19 19 0 00-6.761 3.744 40.24 40.24 0 0025.752.286 18.914 18.914 0 00-7.09-4.027zM104.479 192.061c3.626-2.104 8.024-.49 11.77.393 7.107 2.193 17.074-.553 17.938-9.053.9-7.905-9.872-12.311-13.314-4.443l1.002-.132c-11.165-16.659-30.586-16.027-30.459 6.876-.041.708 1.056.705 1.097 0-.411-13.497 8.486-22.722 21.062-14.049 2.878 2.108 5.207 4.901 7.353 7.729 1.31 1.474 1.594-4.873 7.863-3.21 6.899 2.683 4.648 12.601-1.518 14.778-7.619 3.908-15.871-3.669-23.348.16a.551.551 0 00.554.951z"/>
    <path fill="#3F3D56" d="M114.658 235.923a41.19 41.19 0 01-28.009-11.031 41.51 41.51 0 01-13.112-27.188 41.556 41.556 0 018.75-28.9 41.248 41.248 0 0125.965-15.263 41.154 41.154 0 0129.386 6.484 41.447 41.447 0 0117.198 24.786 41.59 41.59 0 01-4.127 29.921 41.318 41.318 0 01-23.258 19.163 41.088 41.088 0 01-12.793 2.028zm0-80.757a39.019 39.019 0 00-21.74 6.618 39.252 39.252 0 00-14.414 17.63 39.427 39.427 0 00-2.228 22.698 39.33 39.33 0 0010.71 20.114 39.078 39.078 0 0020.035 10.752 38.988 38.988 0 0022.608-2.237 39.162 39.162 0 0017.56-14.471 39.393 39.393 0 006.592-21.826 39.405 39.405 0 00-11.472-27.761 39.09 39.09 0 00-27.651-11.517z"/>
  </g>
  <defs>
    <clipPath id="clip0">
      <path fill="#fff" d="M0 0h301v270H0z"/>
    </clipPath>
  </defs>
</svg>
