<svg xmlns="http://www.w3.org/2000/svg" width="28" height="28" fill="none" viewBox="0 0 28 28">
  <path fill="#949494" d="M19.75 13H15V8.25a.25.25 0 00-.25-.25h-1.5a.25.25 0 00-.25.25V13H8.25a.25.25 0 00-.25.25v1.5c0 .137.113.25.25.25H13v4.75c0 .137.113.25.25.25h1.5a.25.25 0 00.25-.25V15h4.75a.25.25 0 00.25-.25v-1.5a.25.25 0 00-.25-.25z"/>
  <path fill="#949494" d="M14 0C6.269 0 0 6.269 0 14s6.269 14 14 14 14-6.269 14-14S21.731 0 14 0zm0 25.625C7.581 25.625 2.375 20.419 2.375 14S7.581 2.375 14 2.375 25.625 7.581 25.625 14 20.419 25.625 14 25.625z"/>
</svg>
