<svg xmlns="http://www.w3.org/2000/svg" width="265" height="220" fill="none" viewBox="0 0 265 220">
  <path fill="#E6E6E6" d="M256.154 27.409H.204V191.23h255.95V27.409z"/>
  <path fill="#fff" d="M248.835 47.956H7.523V181.54h241.312V47.956z"/>
  <path fill="#AFF6E5" d="M256.045 27.264H.095V38.13h255.95V27.264z"/>
  <path fill="#fff" d="M8.176 34.834a2.015 2.015 0 100-4.03 2.015 2.015 0 000 4.03zM15.825 34.834a2.015 2.015 0 10.002-4.03 2.015 2.015 0 00-.002 4.03zM23.475 34.834a2.015 2.015 0 10.001-4.03 2.015 2.015 0 000 4.03z"/>
  <path fill="#E6E6E6" d="M91.456 61.816H29.45V167.68h62.005V61.816z"/>
  <path fill="#AFF6E5" d="M153.83 61.816h-51.671v29.14h51.671v-29.14z"/>
  <path fill="#E6E6E6" d="M153.83 99.071h-51.671v31.353h51.671V99.071zM153.83 138.539h-51.671v29.14h51.671v-29.14zM226.909 61.816h-62.006v46.135h62.006V61.816z"/>
  <path fill="#AFF6E5" d="M226.909 121.544h-62.006v46.135h62.006v-46.135z"/>
  <path fill="#3F3D56" d="M128.527 74.989l-.809-.215 17.663-66.407h102.457v.836H146.025L128.527 74.99z"/>
  <path fill="#3F3D56" d="M256.21 17.57a8.795 8.795 0 01-8.122-5.423A8.784 8.784 0 01254.495.169a8.797 8.797 0 019.024 3.735A8.788 8.788 0 01265 8.785a8.794 8.794 0 01-8.79 8.785zm0-16.733a7.958 7.958 0 00-7.348 4.906 7.943 7.943 0 001.724 8.662 7.952 7.952 0 008.667 1.723 7.948 7.948 0 004.91-7.343A7.957 7.957 0 00256.21.837z"/>
  <path fill="#AFF6E5" d="M256.21 12.132a3.347 3.347 0 10-3.349-3.347 3.348 3.348 0 003.349 3.347z"/>
  <path fill="#3F3D56" d="M179.512 210.839H77.055v-.836h101.813l17.498-65.786.809.215-17.663 66.407z"/>
  <path fill="#3F3D56" d="M68.683 219.206a8.79 8.79 0 01-8.621-10.499 8.784 8.784 0 016.906-6.902 8.795 8.795 0 019.024 3.735 8.782 8.782 0 011.481 4.881 8.793 8.793 0 01-2.577 6.209 8.804 8.804 0 01-6.213 2.576zm0-16.733a7.955 7.955 0 00-7.348 4.906 7.947 7.947 0 005.796 10.838 7.96 7.96 0 008.165-3.38 7.945 7.945 0 001.34-4.416 7.956 7.956 0 00-7.953-7.948z"/>
  <path fill="#AFF6E5" d="M68.683 213.768a3.348 3.348 0 10.001-6.696 3.348 3.348 0 00-.001 6.696z"/>
</svg>
