<svg xmlns="http://www.w3.org/2000/svg" width="25" height="25" fill="none" viewBox="0 0 25 25">
  <path fill="#969696" d="M16.733 8.662a.196.196 0 00-.195-.195l-1.611.007-2.427 2.893-2.424-2.89-1.614-.008a.194.194 0 00-.195.196c0 .046.017.09.046.127l3.176 3.784-3.176 3.781a.196.196 0 00.149.322l1.614-.007L12.5 13.78l2.424 2.89 1.612.008a.194.194 0 00.195-.195.203.203 0 00-.046-.127l-3.172-3.782L16.69 8.79a.196.196 0 00.044-.127z"/>
  <path fill="#969696" d="M12.5 1.587c-6.04 0-10.938 4.897-10.938 10.937 0 6.04 4.898 10.938 10.938 10.938 6.04 0 10.938-4.898 10.938-10.938 0-6.04-4.898-10.937-10.938-10.937zm0 20.02a9.084 9.084 0 01-9.082-9.083A9.084 9.084 0 0112.5 3.442a9.084 9.084 0 019.082 9.082 9.084 9.084 0 01-9.082 9.082z"/>
</svg>
