<svg xmlns="http://www.w3.org/2000/svg" width="70" height="70" fill="none" viewBox="0 0 70 70">
  <g clip-path="url(#clip0)">
    <path fill="#AFF6E5" d="M63.438 13.125a2.188 2.188 0 012.187 2.188v39.374a2.188 2.188 0 01-2.188 2.188H6.563a2.188 2.188 0 01-2.188-2.188V15.313a2.187 2.187 0 012.188-2.188h56.874zM6.562 8.75A6.563 6.563 0 000 15.313v39.374a6.562 6.562 0 006.563 6.563h56.874A6.563 6.563 0 0070 54.687V15.313a6.563 6.563 0 00-6.563-6.563H6.563z"/>
    <path fill="#AFF6E5" d="M21.875 35a2.188 2.188 0 012.188-2.188h30.625a2.188 2.188 0 010 4.376H24.061A2.188 2.188 0 0121.875 35zm0-10.938a2.188 2.188 0 012.188-2.187h30.625a2.188 2.188 0 010 4.375H24.061a2.188 2.188 0 01-2.187-2.188zm0 21.875a2.188 2.188 0 012.188-2.187h30.625a2.188 2.188 0 010 4.375H24.061a2.188 2.188 0 01-2.187-2.188zM17.5 24.064a2.188 2.188 0 11-4.375 0 2.188 2.188 0 014.375 0zM17.5 35a2.188 2.188 0 11-4.375 0 2.188 2.188 0 014.375 0zm0 10.938a2.188 2.188 0 11-4.375 0 2.188 2.188 0 014.375 0z"/>
  </g>
  <defs>
    <clipPath id="clip0">
      <path fill="#fff" d="M0 0h70v70H0z"/>
    </clipPath>
  </defs>
</svg>
