<svg xmlns="http://www.w3.org/2000/svg" width="179" height="135" fill="none" viewBox="0 0 179 135">
  <path fill="#52E9C5" d="M162.219 11.563a5.594 5.594 0 015.593 5.593v100.688a5.594 5.594 0 01-5.593 5.594H16.781a5.594 5.594 0 01-5.593-5.594V17.156a5.593 5.593 0 015.593-5.593H162.22zM16.781.374A16.781 16.781 0 000 17.156v100.688a16.782 16.782 0 0016.781 16.781H162.22A16.782 16.782 0 00179 117.844V17.156A16.782 16.782 0 00162.219.375H16.781z"/>
  <path fill="#52E9C5" d="M55.938 67.5a5.594 5.594 0 015.593-5.594h78.313a5.594 5.594 0 010 11.188H61.531a5.594 5.594 0 01-5.593-5.594zm0-27.969a5.593 5.593 0 015.593-5.593h78.313a5.594 5.594 0 010 11.187H61.531a5.593 5.593 0 01-5.593-5.594zm0 55.938a5.593 5.593 0 015.593-5.594h78.313a5.594 5.594 0 010 11.187H61.531a5.594 5.594 0 01-5.593-5.593zM44.75 39.53a5.593 5.593 0 11-11.187 0 5.593 5.593 0 0111.187 0zm0 27.969a5.593 5.593 0 11-11.187 0 5.593 5.593 0 0111.187 0zm0 27.969a5.593 5.593 0 11-11.187 0 5.593 5.593 0 0111.187 0z"/>
</svg>
