<svg xmlns="http://www.w3.org/2000/svg" width="40" height="40" fill="none" viewBox="0 0 40 40">
  <path fill="#EAEAEA" d="M23.754 40H16.25c-.47 0-.927-.156-1.293-.442a1.992 1.992 0 01-.721-1.13l-.84-3.768a16.63 16.63 0 01-3.164-1.774l-3.787 1.17a2.121 2.121 0 01-1.37-.04 2.045 2.045 0 01-1.042-.866l-3.76-6.302a1.961 1.961 0 01-.248-1.306c.073-.45.3-.864.646-1.172l2.938-2.6a15.72 15.72 0 010-3.544L.67 15.632a1.995 1.995 0 01-.646-1.172c-.073-.451.015-.912.248-1.308l3.752-6.306c.235-.395.603-.7 1.041-.866.44-.164.923-.179 1.371-.04l3.787 1.17c.503-.36 1.027-.696 1.567-1a17.58 17.58 0 011.606-.772l.84-3.764c.1-.446.355-.845.72-1.13A2.102 2.102 0 0116.25 0h7.504c.47 0 .925.157 1.291.443.366.286.62.685.72 1.131l.85 3.766c1.119.476 2.18 1.07 3.162 1.774l3.79-1.17a2.121 2.121 0 011.369.041c.438.165.805.47 1.04.865l3.752 6.306a1.971 1.971 0 01-.398 2.478l-2.937 2.6a15.719 15.719 0 010 3.544l2.937 2.6c.711.636.876 1.664.398 2.478l-3.752 6.306c-.235.395-.602.7-1.041.866-.439.164-.922.179-1.37.04l-3.788-1.17a16.584 16.584 0 01-3.162 1.772l-.85 3.758c-.1.445-.354.844-.72 1.13a2.101 2.101 0 01-1.291.442zM10.972 28.458l1.69 1.2c.382.272.778.522 1.19.75.388.218.784.414 1.194.592l1.923.818.942 4.182h4.185l.942-4.184 1.924-.818c.839-.36 1.636-.806 2.377-1.332l1.69-1.2 4.21 1.3 2.092-3.516-3.263-2.886.23-2.024c.103-.886.103-1.78 0-2.664l-.23-2.024 3.265-2.892-2.094-3.518-4.208 1.3-1.692-1.2A12.935 12.935 0 0024.962 9l-1.924-.818L22.096 4h-4.185l-.948 4.184L15.046 9a12.49 12.49 0 00-2.377 1.332l-1.693 1.2-4.205-1.3-2.097 3.528 3.264 2.882-.231 2.026c-.103.886-.103 1.78 0 2.664l.23 2.024-3.263 2.886 2.093 3.516 4.205-1.3zM19.993 28a8.377 8.377 0 01-5.83-2.343A7.881 7.881 0 0111.748 20c0-2.122.868-4.157 2.415-5.657A8.377 8.377 0 0119.993 12c2.187 0 4.285.843 5.831 2.343A7.881 7.881 0 0128.24 20a7.881 7.881 0 01-2.415 5.657A8.377 8.377 0 0119.994 28zm0-12c-.807 0-1.596.232-2.27.664a4.031 4.031 0 00-1.518 1.767 3.89 3.89 0 00-.264 2.285c.145.771.52 1.484 1.078 2.05.558.565 1.275.96 2.062 1.134.788.174 1.61.12 2.366-.155a4.112 4.112 0 001.886-1.394 3.924 3.924 0 00.783-2.171v.8V20a3.94 3.94 0 00-1.207-2.828A4.188 4.188 0 0019.993 16z"/>
</svg>
