<svg xmlns="http://www.w3.org/2000/svg" width="206" height="145" fill="none" viewBox="0 0 206 145">
  <g clip-path="url(#clip0)">
    <path fill="#2A5248" fill-opacity=".08" d="M206 0H63.133a124.923 124.923 0 00-1.646 20.253c0 68.488 55.497 124.009 123.957 124.009A124.73 124.73 0 00206 142.564V0z"/>
    <path fill="#CFFCF1" d="M149.317 86a27.91 27.91 0 01-9.875-1.797 1.461 1.461 0 01-.822-.773 1.496 1.496 0 01-.038-1.134 1.467 1.467 0 011.891-.867 25.469 25.469 0 0013.109 1.254 25.57 25.57 0 0012.001-5.466c-10.795.116-21.354-5.027-26.607-13.279-3.377-5.304-4.481-11.546-3.193-18.05a32.318 32.318 0 015.921-12.975 25.517 25.517 0 00-13.556 10.346 25.857 25.857 0 00-4.089 16.638 1.48 1.48 0 01-1.317 1.625 1.454 1.454 0 01-1.078-.33 1.488 1.488 0 01-.529-1.003 28.821 28.821 0 015.972-20.534 28.381 28.381 0 0118.416-10.64 1.462 1.462 0 011.516.801c.138.277.186.59.138.895a1.482 1.482 0 01-.404.81c-7.516 7.695-12.077 20.209-5.324 30.818 5.329 8.368 16.793 13.155 27.885 11.642.297-.04.6.012.867.15a1.477 1.477 0 01.788 1.495 1.48 1.48 0 01-.362.809 28.597 28.597 0 01-9.643 7.072A28.406 28.406 0 01149.317 86z"/>
    <path fill="#CFFCF1" d="M126 86a10.998 10.998 0 01-10.789-13.146A11 11 0 01137 75a11.011 11.011 0 01-11 11zm0-19a8.003 8.003 0 00-7.391 4.939 7.993 7.993 0 00-.455 4.622 7.993 7.993 0 006.285 6.285 7.998 7.998 0 007.215-13.5A8.01 8.01 0 00126 67zM57.5 91c-.663 0-1.299-.21-1.768-.586-.469-.375-.732-.884-.732-1.415v-6.001c.001-.53.265-1.039.734-1.413.468-.375 1.104-.585 1.766-.585.662 0 1.298.21 1.766.585.47.374.733.883.734 1.413v6.001c0 .263-.065.523-.19.766-.126.243-.31.463-.542.649a2.613 2.613 0 01-.811.434c-.304.1-.629.152-.957.152zM57.5 141c-.328 0-.653-.057-.957-.167a2.561 2.561 0 01-.81-.477 2.202 2.202 0 01-.543-.714 1.972 1.972 0 01-.19-.841v-6.598c0-.289.064-.576.19-.843.125-.267.309-.51.54-.715.233-.204.509-.367.812-.477a2.794 2.794 0 011.916 0c.303.11.579.273.811.477.232.205.416.448.542.715.125.267.19.554.189.843v6.598c0 .288-.065.574-.19.841-.126.267-.31.51-.542.714a2.561 2.561 0 01-.811.477c-.304.11-.629.167-.957.167zM72.941 97a1.941 1.941 0 01-1.372-3.314l4.118-4.118a1.942 1.942 0 012.745 2.745l-4.118 4.118a1.936 1.936 0 01-1.373.569zM38.184 132c-.432 0-.854-.114-1.213-.327a2.012 2.012 0 01-.805-.871 1.744 1.744 0 01-.124-1.122 1.89 1.89 0 01.597-.994l4.633-4.117a2.33 2.33 0 011.544-.569c.58 0 1.135.204 1.544.569.41.364.64.857.64 1.372a1.84 1.84 0 01-.64 1.373l-4.632 4.117a2.214 2.214 0 01-.708.422c-.265.097-.55.147-.836.147zM85.797 113h-6.6c-.583-.001-1.142-.265-1.554-.734A2.681 2.681 0 0177 110.5c0-.662.231-1.298.643-1.766.412-.469.97-.733 1.554-.734h6.6c.289 0 .575.064.843.189.267.126.51.31.715.542.204.232.367.508.477.811a2.8 2.8 0 010 1.916c-.11.303-.273.579-.477.811a2.216 2.216 0 01-.715.542 1.986 1.986 0 01-.843.189zM36.003 113h-6a1.67 1.67 0 01-.766-.189 2.045 2.045 0 01-.65-.542 2.613 2.613 0 01-.434-.811A3.053 3.053 0 0128 110.5c0-.329.052-.654.152-.958.101-.303.249-.579.435-.811.186-.232.407-.416.65-.542a1.67 1.67 0 01.766-.189h6c.53.001 1.038.265 1.412.734.375.468.585 1.104.585 1.766 0 .662-.21 1.298-.585 1.766-.374.469-.882.733-1.412.734zM77.06 132a1.95 1.95 0 01-1.372-.568l-4.118-4.117a1.955 1.955 0 01-.57-1.373A1.939 1.939 0 0172.942 124a1.952 1.952 0 011.373.57l4.117 4.117a1.938 1.938 0 01.42 2.115A1.938 1.938 0 0177.06 132zM42.816 97c-.287 0-.57-.05-.836-.147a2.212 2.212 0 01-.708-.422l-4.632-4.117a1.943 1.943 0 01-.474-.63 1.757 1.757 0 010-1.486c.11-.235.27-.45.474-.63.202-.18.443-.323.708-.42a2.422 2.422 0 011.672 0c.264.097.505.24.708.42l4.632 4.118c.306.272.514.618.598.994.084.377.041.767-.124 1.122a2.01 2.01 0 01-.805.87c-.359.214-.78.328-1.213.328zM58 124a12.996 12.996 0 01-12.01-8.025A13 13 0 1171 111a13.014 13.014 0 01-13 13zm0-21.667a8.67 8.67 0 00-8.5 10.358A8.666 8.666 0 0066.667 111 8.674 8.674 0 0058 102.333z"/>
  </g>
  <defs>
    <clipPath id="clip0">
      <path fill="#fff" d="M0 0h206v145H0z"/>
    </clipPath>
  </defs>
</svg>
