<svg xmlns="http://www.w3.org/2000/svg" width="30" height="30" fill="none" viewBox="0 0 30 30">
  <path fill="#CFFCF1" d="M13.875 8.999h11.25l.36.012a4.875 4.875 0 014.508 4.586l.007.277v11.25a4.875 4.875 0 01-4.599 4.869l-.276.007h-11.25a4.875 4.875 0 01-4.867-4.6L9 25.127v-11.25a4.875 4.875 0 014.599-4.868L13.875 9V9zM11.25 25.125l.008.19.027.236a2.626 2.626 0 002.376 2.19l.214.009h11.25a2.625 2.625 0 002.616-2.41l.009-.215v-11.25a2.626 2.626 0 00-2.625-2.626h-11.25a2.625 2.625 0 00-2.616 2.41l-.009.215v11.25zM20.625 4.5a4.878 4.878 0 014.5 2.997h-2.667a2.616 2.616 0 00-1.618-.738l-.215-.009H9.375a2.625 2.625 0 00-2.616 2.41l-.009.215v11.251l.015.294c.067.599.336 1.136.735 1.544v2.664a4.878 4.878 0 01-2.992-4.226l-.008-.276V9.376a4.875 4.875 0 014.599-4.868l.276-.008h11.25zm-4.5-4.5a4.874 4.874 0 014.412 2.8l.088.2L17.959 3a2.616 2.616 0 00-1.62-.74l-.214-.009H4.875a2.625 2.625 0 00-2.616 2.41l-.009.215v11.25c0 .716.285 1.366.75 1.838v2.665a4.877 4.877 0 01-2.992-4.226L0 16.126V4.876A4.875 4.875 0 014.599.007L4.875 0h11.25z"/>
</svg>
