<svg xmlns="http://www.w3.org/2000/svg" width="430" height="480" fill="none" viewBox="0 0 430 480">
  <g clip-path="url(#clip0)">
    <path fill="url(#paint0_linear)" d="M422.55 410.655l-21.103 19.431 16.771-28.145c-13.213-23.964-34.824-44.676-34.824-44.676s-44.833 42.96-44.833 76.73c0 33.769 20.072 45.56 44.833 45.56s44.834-11.791 44.834-45.56c0-7.517-2.225-15.488-5.678-23.34z"/>
    <path fill="#fff" d="M396.019 431.138v1.664c-.098 19.349-3.361 34.445-9.763 45.075-.091.157-.189.305-.28.462l-.717-.437-.684-.429c7.102-11.479 9.615-27.704 9.706-44.58.008-.544.016-1.096.008-1.648-.025-7.144-.461-14.371-1.161-21.392-.05-.544-.108-1.096-.165-1.648-.973-9.262-2.373-18.112-3.807-25.801a99.197 99.197 0 00-.313-1.623c-2.48-13.003-5.009-22.422-5.586-24.507-.066-.255-.107-.395-.115-.428l.782-.223.009-.008.791-.222c.008.033.148.502.379 1.376.881 3.263 3.172 12.121 5.421 23.806.099.527.206 1.071.305 1.615 1.17 6.238 2.315 13.209 3.221 20.527.231 1.837.437 3.65.618 5.439.066.552.124 1.104.173 1.648.758 7.589 1.151 14.7 1.178 21.334z"/>
    <path fill="#fff" d="M390.524 380.575a45.364 45.364 0 01-6.328.445 44.212 44.212 0 01-19.115-4.318l-1.046 1.319a45.855 45.855 0 0020.161 4.647c1.657 0 3.313-.088 4.96-.264a35.38 35.38 0 001.673-.214 45.427 45.427 0 0013.141-3.98c-.354-.453-.7-.898-1.038-1.335a44.024 44.024 0 01-12.408 3.7zM394.668 408.156c-.568.033-1.137.049-1.705.049-.173.008-.355.008-.528.008a44.442 44.442 0 01-36.483-19.06c-.329.487-.659.973-.98 1.467a46.093 46.093 0 0037.463 19.241c.231 0 .462 0 .693-.008a60.347 60.347 0 001.713-.049 45.854 45.854 0 0024.429-8.57c-.263-.486-.527-.973-.799-1.459a44.14 44.14 0 01-23.803 8.381z"/>
    <path fill="#fff" d="M396.019 431.138a45.87 45.87 0 01-3.584.148 44.57 44.57 0 01-42.728-32.071c-.371.667-.742 1.326-1.096 1.994a46.195 46.195 0 0043.824 31.725c.618 0 1.236-.008 1.846-.041a38.198 38.198 0 001.738-.091 46.06 46.06 0 0030.403-14.84c-.173-.61-.371-1.212-.568-1.822a44.426 44.426 0 01-29.835 14.998z"/>
    <path fill="#52E9C5" d="M346.661 103.786L117.127 74.518c-.618-.079-1.241-.12-1.864-.12a14.214 14.214 0 00-3.642.469c-.6.16-1.189.358-1.764.595a15.503 15.503 0 00-3.197 1.785c-.51.37-.999.77-1.464 1.195-.48.439-.936.902-1.367 1.39a19.695 19.695 0 00-1.246 1.568 21.35 21.35 0 00-2.06 3.582 23.871 23.871 0 00-.806 2 25.229 25.229 0 00-.66 2.182c-.19.743-.347 1.5-.474 2.269-.125.768-.22 1.55-.286 2.343-.066.793-.1 1.596-.1 2.409.003.812.037 1.621.1 2.428a30.233 30.233 0 002.227 9.245c.295.704.614 1.389.958 2.055a27.08 27.08 0 001.103 1.941c.392.63.807 1.236 1.246 1.819.439.582.895 1.138 1.367 1.667.472.526.96 1.022 1.464 1.488.504.466 1.022.902 1.556 1.307.528.4 1.075.774 1.641 1.118.57.348 1.159.664 1.764.946.586.273 1.189.512 1.804.715a15.221 15.221 0 003.702.738l229.534 16.792a5.8 5.8 0 001.984-.198c.328-.091.648-.21.957-.353a7.05 7.05 0 00.929-.521c.3-.199.587-.418.859-.655a9.61 9.61 0 00.809-.793c.269-.296.521-.606.757-.929.244-.332.478-.685.703-1.061.225-.376.438-.768.638-1.176a19.155 19.155 0 001.048-2.634c.149-.47.285-.953.407-1.45.129-.515.24-1.039.333-1.572.093-.533.173-1.073.239-1.622.064-.549.112-1.105.144-1.669a30.121 30.121 0 000-3.427 29.687 29.687 0 00-.383-3.367 27.472 27.472 0 00-.74-3.171 24.227 24.227 0 00-1.048-2.843c-.2-.447-.412-.882-.638-1.303a17.84 17.84 0 00-.703-1.202 15.08 15.08 0 00-.757-1.081c-.261-.341-.531-.66-.809-.957a10.994 10.994 0 00-.859-.827 9.357 9.357 0 00-.929-.707 7.87 7.87 0 00-.957-.546 6.878 6.878 0 00-.982-.381 6.358 6.358 0 00-1.004-.213z"/>
    <path fill="#E4E4E4" d="M346.661 169.796l-229.534-5.498a14.742 14.742 0 00-3.703.378c-.612.142-1.214.323-1.804.54-.602.223-1.191.481-1.763.774-.565.289-1.113.61-1.641.96-.539.357-1.059.743-1.557 1.156-.51.424-.999.873-1.463 1.347-.473.481-.929.993-1.367 1.535-.438.544-.854 1.11-1.246 1.7-.392.589-.76 1.2-1.104 1.833a25.445 25.445 0 00-.957 1.962 27.662 27.662 0 00-1.466 4.334 28.786 28.786 0 00-.76 4.691 29.383 29.383 0 000 4.838c.064.799.16 1.59.286 2.372a29.5 29.5 0 00.476 2.308 27.63 27.63 0 001.466 4.331c.294.673.613 1.325.957 1.956s.712 1.239 1.104 1.826a22.71 22.71 0 001.246 1.686c.439.54.894 1.049 1.367 1.527.464.471.953.917 1.463 1.338.498.409 1.018.792 1.557 1.145.529.347 1.077.664 1.641.95.572.289 1.161.544 1.763.763a15.137 15.137 0 003.642.826c.62.059 1.243.079 1.865.06l229.532-6.984c.337-.01.673-.049 1.004-.116.334-.068.663-.163.981-.285.331-.126.651-.277.958-.452a8.09 8.09 0 00.929-.617c.301-.231.587-.479.859-.744.285-.278.555-.57.809-.877.261-.312.513-.647.757-1.006a16.652 16.652 0 001.341-2.376 20.459 20.459 0 001.048-2.749c.149-.481.284-.977.407-1.488.129-.522.24-1.055.333-1.598.093-.543.173-1.092.239-1.647a29.273 29.273 0 00.191-3.401c-.002-.57-.018-1.14-.047-1.71a27.968 27.968 0 00-.383-3.332 26.623 26.623 0 00-.333-1.603 24.77 24.77 0 00-.408-1.492 22.03 22.03 0 00-.485-1.411 19.83 19.83 0 00-.561-1.326c-.201-.428-.413-.84-.638-1.237-.225-.397-.46-.774-.703-1.131a13.139 13.139 0 00-.757-1.003 11.118 11.118 0 00-.809-.872 9.74 9.74 0 00-.859-.738 8.174 8.174 0 00-.929-.611 6.888 6.888 0 00-.959-.444 6.047 6.047 0 00-1.985-.388zM346.661 231.68l-229.534 16.789a15.532 15.532 0 00-3.702.738c-.615.203-1.218.442-1.804.715-.605.282-1.194.598-1.764.946a19.21 19.21 0 00-1.641 1.119c-.534.408-1.053.843-1.556 1.306-.503.465-.991.961-1.464 1.488a24.52 24.52 0 00-1.367 1.667 27.182 27.182 0 00-1.246 1.821 27.924 27.924 0 00-2.06 3.996 29.62 29.62 0 00-1.466 4.477c-.19.783-.347 1.571-.474 2.364-.125.795-.22 1.596-.286 2.402a29.687 29.687 0 00.286 7.181c.128.771.287 1.528.476 2.27s.409 1.469.66 2.182c.243.689.511 1.356.805 2 .295.645.614 1.265.958 1.863.343.597.711 1.17 1.103 1.719a18.47 18.47 0 002.613 2.958c.465.425.954.824 1.464 1.195a15.575 15.575 0 003.197 1.785 14.164 14.164 0 005.405 1.065 15.09 15.09 0 001.865-.121l229.532-29.261a6.25 6.25 0 001.004-.214c.337-.101.665-.228.982-.38.331-.16.651-.342.957-.546.324-.216.634-.452.929-.707.301-.26.588-.537.859-.828.275-.297.545-.616.809-.956.261-.34.513-.7.757-1.081s.478-.782.703-1.202c.225-.418.438-.853.638-1.304a23.872 23.872 0 001.048-2.851 25.97 25.97 0 00.407-1.532c.129-.541.24-1.087.333-1.64a29.622 29.622 0 00.431-5.086 35.518 35.518 0 00-.049-1.704c-.03-.564-.078-1.12-.144-1.669a26.273 26.273 0 00-.238-1.626 24.541 24.541 0 00-.74-3.021 19.505 19.505 0 00-1.047-2.635 17.494 17.494 0 00-.641-1.172c-.225-.377-.46-.731-.703-1.061a11.235 11.235 0 00-.757-.929 9.61 9.61 0 00-.809-.793 8.25 8.25 0 00-.859-.655 7.05 7.05 0 00-.929-.521 6.17 6.17 0 00-.957-.353 5.8 5.8 0 00-1.984-.198"/>
    <path fill="#9E616A" d="M221.552 234.756a11.51 11.51 0 0020.381-1.251 11.51 11.51 0 00.453-8.175l44.486-91.407-21.294-12.91-38.418 97.092a11.254 11.254 0 00-1.695.827 11.529 11.529 0 00-3.914 15.823l.001.001z"/>
    <path fill="#CCC" d="M278.381 169.17l-31.604-8.101s1.032-2.333 2.709-6.198 4.02-9.254 6.656-15.373 5.56-12.955 8.416-19.713a1349.635 1349.635 0 007.974-19.223c2.34-5.787 4.998-9.254 7.669-11.196a10.544 10.544 0 017.749-2.06 14.973 14.973 0 015.996 2.282 16.327 16.327 0 012.407 1.827l7.327 13.328-25.299 64.427z"/>
    <path fill="#E4E4E4" d="M25.46 161.931a20.916 20.916 0 00-4.53.849c-.749.229-1.486.499-2.207.808-.737.316-1.458.67-2.159 1.061a25.592 25.592 0 00-3.917 2.718 26.722 26.722 0 00-1.795 1.66 28.163 28.163 0 00-1.676 1.86 29.38 29.38 0 00-2.883 4.187 33.168 33.168 0 00-1.172 2.289 29.956 29.956 0 00-.992 2.403 30.742 30.742 0 00-1.747 13.227c.078.879.195 1.743.35 2.594.156.851.35 1.687.583 2.508.233.821.503 1.624.811 2.411.3.76.631 1.495.992 2.205a22.423 22.423 0 004.058 5.659c.531.538 1.09 1.047 1.676 1.524.574.467 1.173.902 1.796 1.302a19.08 19.08 0 003.917 1.929 18.823 18.823 0 006.612 1.091 20.803 20.803 0 004.55-.58c.751-.181 1.491-.403 2.218-.665a22.184 22.184 0 002.157-.91c.716-.347 1.413-.73 2.09-1.148.66-.412 1.302-.853 1.926-1.324.625-.47 1.23-.972 1.816-1.505a27.178 27.178 0 001.697-1.687 28.37 28.37 0 001.573-1.86c.507-.649.983-1.317 1.43-2.005a30.076 30.076 0 002.34-4.341 31.095 31.095 0 001.65-4.794 30.956 30.956 0 00.85-5.056 30.695 30.695 0 000-5.115 28.223 28.223 0 00-.319-2.48 26.992 26.992 0 00-1.274-4.728 25.998 25.998 0 00-.908-2.14 25.613 25.613 0 00-1.088-2.006 22.511 22.511 0 00-2.68-3.584 21.29 21.29 0 00-1.57-1.546 20.096 20.096 0 00-1.697-1.346 19.401 19.401 0 00-3.746-2.074 18.67 18.67 0 00-4.247-1.205 19.153 19.153 0 00-4.485-.184M25.46 255.173a20.685 20.685 0 00-4.53.849 21.65 21.65 0 00-2.207.807c-.737.316-1.458.67-2.159 1.061a25.592 25.592 0 00-3.917 2.718 26.479 26.479 0 00-1.795 1.661 28.163 28.163 0 00-1.676 1.86 29.36 29.36 0 00-2.883 4.187 32.918 32.918 0 00-1.172 2.288 30.86 30.86 0 00-2.388 7.604 30.507 30.507 0 00-.468 5.358c0 .901.039 1.791.117 2.669.078.878.195 1.743.35 2.594a26.822 26.822 0 001.394 4.919c.3.76.631 1.495.992 2.205a22.603 22.603 0 004.058 5.659 21.02 21.02 0 001.676 1.523c.574.468 1.173.902 1.796 1.303a19.128 19.128 0 003.917 1.928 18.721 18.721 0 006.612 1.091c.763-.01 1.525-.064 2.282-.161a21.045 21.045 0 004.486-1.084 22.177 22.177 0 002.157-.909 23.733 23.733 0 002.09-1.149c.66-.411 1.302-.852 1.926-1.323.625-.471 1.23-.973 1.816-1.506a27.437 27.437 0 001.697-1.686 28.39 28.39 0 001.573-1.861c.507-.649.983-1.317 1.43-2.005a29.829 29.829 0 002.34-4.34 31.12 31.12 0 001.65-4.794 31.073 31.073 0 00.958-7.624c-.001-.86-.037-1.709-.108-2.548a28.272 28.272 0 00-.319-2.48 27.07 27.07 0 00-.532-2.404 26.145 26.145 0 00-1.65-4.464 25.592 25.592 0 00-1.088-2.005 22.466 22.466 0 00-2.68-3.584 20.3 20.3 0 00-3.266-2.893 19.391 19.391 0 00-3.747-2.074 18.72 18.72 0 00-6.463-1.426 19.748 19.748 0 00-2.27.038"/>
    <path fill="#52E9C5" d="M25.465 60.92a20.056 20.056 0 00-4.53.409c-.746.156-1.484.354-2.207.595a20.69 20.69 0 00-2.16.852c-.688.317-1.359.67-2.01 1.058-.657.392-1.294.818-1.907 1.276a23.02 23.02 0 00-1.795 1.488 24.568 24.568 0 00-1.68 1.7 26.149 26.149 0 00-2.883 3.908c-.42.71-.811 1.438-1.175 2.182a26.267 26.267 0 00-.992 2.307 28.669 28.669 0 00-1.393 5.063c-.156.87-.273 1.747-.351 2.63a30.448 30.448 0 00.35 7.985 28.615 28.615 0 001.394 5.054c.3.789.631 1.556.992 2.301.364.743.757 1.463 1.178 2.162a25.702 25.702 0 002.883 3.889 24.936 24.936 0 001.677 1.686c.57.524 1.166 1.019 1.786 1.482.613.454 1.25.875 1.907 1.263a21.155 21.155 0 004.17 1.884c1.446.468 2.94.767 4.456.892a20.13 20.13 0 006.766-.588 20.381 20.381 0 004.247-1.646 21.83 21.83 0 003.746-2.462 23.704 23.704 0 001.697-1.521 24.593 24.593 0 001.573-1.708c.507-.601.984-1.223 1.43-1.867.447-.644.866-1.309 1.256-1.996.392-.686.753-1.392 1.083-2.118a28.529 28.529 0 002.182-7.09 30.16 30.16 0 00.427-5.075c-.001-.859-.037-1.711-.108-2.557a29.225 29.225 0 00-.85-4.968 28.74 28.74 0 00-1.65-4.624 25.403 25.403 0 00-1.089-2.114c-.39-.68-.808-1.34-1.255-1.984a24.889 24.889 0 00-1.426-1.856 24.05 24.05 0 00-1.569-1.696 23.326 23.326 0 00-1.697-1.51 21.64 21.64 0 00-3.745-2.441c-.679-.35-1.377-.66-2.09-.933a20.057 20.057 0 00-4.374-1.123 20.084 20.084 0 00-2.27-.182l.006-.006zm-.005-2.475c3.331.091 6.599.937 9.557 2.474a25.08 25.08 0 017.664 6.193 29.197 29.197 0 015.098 8.952 32.656 32.656 0 010 21.702 29.443 29.443 0 01-5.098 8.985 25.306 25.306 0 01-7.665 6.238 22.153 22.153 0 01-9.557 2.537 21.849 21.849 0 01-9.752-1.945 24.645 24.645 0 01-8.111-5.982 28.885 28.885 0 01-5.546-9.16 32.624 32.624 0 010-22.761 29.13 29.13 0 015.546-9.195 24.885 24.885 0 018.111-6.035 21.928 21.928 0 019.758-2.007l-.005.004z"/>
    <path fill="#52E9C5" d="M25.463 94L17.65 77.724l1.855-1.208 6.435 13.372 27.018-31.761 1.636 1.742-29.131 34.133z"/>
    <path fill="#9E616A" d="M309.785 415.363l-19.34-.075 6.237 50.542 13.103.065v-50.532z"/>
    <path fill="#2A5248" d="M313.127 478.613l-42.229-.223v-.534a16.594 16.594 0 01.315-3.229 16.16 16.16 0 012.435-5.867 16.603 16.603 0 014.567-4.545 16.179 16.179 0 019.109-2.707l25.803.127v16.978z"/>
    <path fill="#9E616A" d="M247.861 415.123l-19.284-.075 6.216 50.473 13.068.066v-50.464z"/>
    <path fill="#2A5248" d="M251.193 478.284l-42.117-.221v-.533c0-1.083.105-2.163.315-3.224a16.163 16.163 0 012.428-5.86 16.55 16.55 0 014.556-4.541 16.12 16.12 0 015.864-2.403 16.514 16.514 0 013.222-.298l25.732.126v16.954zM247.042 208.546l-32.429 121.037 11.87 116.023 26.282.725-5.722-104.762 32.787-52.281 7.111 157.757 23.841-1.687 13.262-135.638a154.052 154.052 0 009.849-32.981 146.915 146.915 0 002.329-26.946 126.011 126.011 0 00-1.398-18.169 66.499 66.499 0 00-1.31-6.662l-9.669-9.803-76.803-6.613z"/>
    <path fill="#AFF6E5" d="M290.007 228.789c-5.453 0-10.571-.175-15.211-.52-4.74-.325-9.454-.946-14.117-1.859a50.255 50.255 0 01-11.514-3.625 18.488 18.488 0 01-7.469-5.895l-.221-.322 8.864-57.693 9.558-64.87A17.679 17.679 0 01277.933 78.9l29.936.917a16.77 16.77 0 0111.879 5.462 16.781 16.781 0 014.353 12.33l-3.929 64.514 14.495 63.635-1.027.143c-.413.055-2.004.265-4.495.545-3.258.366-6.583.696-9.885.981-4.672.403-9.243.72-13.587.942-5.509.281-10.79.417-15.666.421z"/>
    <path fill="#2F2E41" d="M273.396 67.435h-.024a4.781 4.781 0 01-4.78-4.786V35.956a35.679 35.679 0 012.814-13.922A36.243 36.243 0 01290.448 2.89a35.685 35.685 0 0145.469 15.842 35.71 35.71 0 014.287 16.905V62.37c0 .644-.129 1.28-.379 1.873a4.873 4.873 0 01-2.565 2.57 4.807 4.807 0 01-1.874.387l-61.994.235h.004z"/>
    <path fill="#9E616A" d="M320.565 26.802a26.314 26.314 0 01-15.158 37.728 26.304 26.304 0 01-15.263.173 25.996 25.996 0 01-15.641-12.532 26.316 26.316 0 0115.15-37.703 26.307 26.307 0 0115.251-.189 26.007 26.007 0 0115.661 12.523z"/>
    <path fill="#2F2E41" d="M260.127 38.128a28.232 28.232 0 012.226-11.01 28.655 28.655 0 0115.058-15.137A28.228 28.228 0 01288.42 9.7l5.342-.027h.18a28.167 28.167 0 0128.15 28.188v.534l-11.301.046-3.853-10.767-.771 10.788-5.836.025-1.943-5.431-.39 5.438-37.866.17-.005-.536z"/>
    <path fill="#9E616A" d="M214.634 94.282a12.402 12.402 0 00-4.767 2.336 12.072 12.072 0 00-2.768 3.104 12.602 12.602 0 00-1.82 7.859 12.04 12.04 0 001.113 4.002 12.274 12.274 0 007.646 6.546 12.267 12.267 0 009.97-1.379 11.674 11.674 0 001.235-.898l62.357 22.197a9.399 9.399 0 0010.777-3.367l14.784-20.472-17.874-12.037-9.379 10.657-57.067-11.354a14.352 14.352 0 00-.63-1.311 9.166 9.166 0 00-.248-.426 12.257 12.257 0 00-13.329-5.457z"/>
    <path fill="#CFFCF1" d="M286.914 106.109c1.866-2.328 4.474-5.351 7.123-8.35 2.65-2.998 5.339-5.97 7.367-8.192 2.029-2.223 3.394-3.697 3.394-3.697a14.692 14.692 0 0125.159 1.075 14.701 14.701 0 011.535 9.767 14.49 14.49 0 01-2.192 5.371s-2.034 2.663-5.105 6.637c-3.071 3.974-7.18 9.264-11.324 14.523-4.144 5.26-8.329 10.492-11.555 14.354-3.227 3.862-5.498 6.357-5.817 6.143l-11.255-33.46c-.32-.214.805-1.843 2.67-4.171z"/>
    <path fill="#2F2E41" d="M293.594 66.594a4.703 4.703 0 00.199 2.584 4.807 4.807 0 001.412 2.025 4.773 4.773 0 003.953 1.05l4.011-.73 5.524-11.803v10.812l18.236-3.283V21.367l-30.57.146.755.878a21.028 21.028 0 014.761 10.348c.593 3.871.518 7.815-.22 11.66a61.809 61.809 0 01-3.255 11.388 91.233 91.233 0 01-4.348 9.545 4.809 4.809 0 00-.458 1.262z"/>
  </g>
  <defs>
    <linearGradient id="paint0_linear" x1="383.394" x2="383.394" y1="357.265" y2="479.555" gradientUnits="userSpaceOnUse">
      <stop stop-color="#F2F2F2"/>
      <stop offset="1" stop-color="#F2F2F2" stop-opacity="0"/>
    </linearGradient>
    <clipPath id="clip0">
      <path fill="#fff" d="M0 0h430v480H0z"/>
    </clipPath>
  </defs>
</svg>
