<svg xmlns="http://www.w3.org/2000/svg" width="410" height="484" fill="none" viewBox="0 0 410 484">
  <g clip-path="url(#clip0)">
    <path fill="#52E9C5" d="M192.663 164.175c0 24.096-8.424 44.668-24.455 59.977-11.376 10.87-28.898 26.104-28.898 42.212v13.326H85.957v-13.326c0-16.276-17.591-31.542-28.898-42.212-15.67-14.773-24.456-36.742-24.456-59.977v-.493a79.949 79.949 0 0123.62-56.471 80.057 80.057 0 0156.657-23.246 80.057 80.057 0 0156.513 23.594 79.949 79.949 0 0123.27 56.616z"/>
    <path fill="#3F3D56" d="M139.309 281.562a1.875 1.875 0 01-1.872-1.871v-13.329c0-15.668 15.463-30.294 26.754-40.974.936-.887 1.847-1.746 2.722-2.585 15.619-14.922 23.874-35.194 23.874-58.627 0-43.795-34.328-78.102-78.152-78.102h-.221a78.048 78.048 0 00-55.004 22.759 77.943 77.943 0 00-22.929 54.903v.437c0 22.948 8.698 44.315 23.866 58.622.768.726 1.566 1.472 2.385 2.239 11.436 10.7 27.1 25.354 27.1 41.329v13.328a1.871 1.871 0 01-3.745 0v-13.329c0-14.352-14.976-28.365-25.914-38.601a947.425 947.425 0 01-2.397-2.248c-15.912-15.011-25.039-37.369-25.039-61.34v-.449c.125-44.927 36.745-81.394 81.671-81.394h.232a81.498 81.498 0 0157.731 23.547 81.392 81.392 0 0124.161 58.299c0 24.479-8.656 45.687-25.031 61.331-.879.84-1.795 1.707-2.737 2.598-10.795 10.212-25.584 24.199-25.584 38.257v13.329a1.872 1.872 0 01-1.872 1.871h.001z"/>
    <path fill="#52E9C5" d="M130.418 305.567H94.85a3.12 3.12 0 01-3.12-3.118 3.118 3.118 0 013.12-3.118h35.568a3.118 3.118 0 110 6.236z"/>
    <path fill="#3F3D56" d="M116.459 326.457h-7.655a14.634 14.634 0 01-7.547-2.089 1.74 1.74 0 01-.792-2.005c.103-.384.33-.724.647-.965a1.796 1.796 0 011.102-.37h20.835a1.8 1.8 0 011.748 1.335c.112.375.095.776-.048 1.14a1.747 1.747 0 01-.744.865 14.63 14.63 0 01-7.546 2.089zM130.425 315.416l-35.78-.004-.111-.238a2.944 2.944 0 01.561-2.53 3.035 3.035 0 012.386-1.153h30.301a3.024 3.024 0 012.385 1.153 2.92 2.92 0 01.569 2.499l-.056.241-.255.032z"/>
    <path fill="#E4E4E4" d="M29.89 90.678a3.109 3.109 0 01-2.05-.769L1.044 66.536a3.117 3.117 0 011.848-5.438c.82-.06 1.63.207 2.255.74l26.795 23.374a3.118 3.118 0 01-2.053 5.467zM190.934 90.678a3.117 3.117 0 01-2.053-5.467l26.794-23.375a3.122 3.122 0 015.142 2.565 3.118 3.118 0 01-1.038 2.133l-26.795 23.373a3.11 3.11 0 01-2.05.771z"/>
    <path fill="#52E9C5" d="M139.309 294.501H85.956a3.12 3.12 0 01-2.206-5.323 3.124 3.124 0 012.206-.913h53.353a3.118 3.118 0 110 6.236z"/>
    <path fill="#AFF6E5" d="M111.323 213.046l-11.095 66.644h-6.334l11.27-67.666a3.12 3.12 0 013.591-2.567 3.12 3.12 0 012.568 3.589zM132.646 279.69h-6.334l-11.095-66.644a3.115 3.115 0 01.54-2.326 3.125 3.125 0 014.355-.723 3.12 3.12 0 011.264 2.027l11.27 67.666z"/>
    <path fill="#AFF6E5" d="M92.356 210.82a3.118 3.118 0 013.12-3.118h34.316a3.122 3.122 0 013.12 3.118 3.118 3.118 0 01-3.12 3.118H95.476a3.12 3.12 0 01-3.12-3.118z"/>
    <path fill="#E4E4E4" d="M112.634 59.554a3.12 3.12 0 01-3.12-3.118V3.118A3.118 3.118 0 01112.634 0a3.121 3.121 0 013.12 3.118v53.318a3.118 3.118 0 01-3.12 3.118z"/>
    <path fill="#FEB8B8" d="M367.681 475.276h-7.649l-3.639-29.489h11.289l-.001 29.489z"/>
    <path fill="#2A5248" d="M369.633 482.687h-24.668v-.312a9.589 9.589 0 012.812-6.784 9.608 9.608 0 016.788-2.811h15.068v9.907z"/>
    <path fill="#FEB8B8" d="M309.562 475.024l-7.39-1.975 4.106-29.428 10.907 2.915-7.623 28.488z"/>
    <path fill="#2A5248" d="M309.532 482.687l-23.831-6.369.081-.301a9.597 9.597 0 014.47-5.828 9.609 9.609 0 017.286-.963l14.555 3.89-2.561 9.571zM372.082 310.014l6.408 7.441-8.286 151.186h-17.703l-8.924-116.333-27.674 119.453-18.403-4.51 16.733-151.722 57.849-5.515z"/>
    <path fill="#AFF6E5" d="M318.511 212.406l17.626-8.838 27.106.476 23.325 11.928-13.271 66.237 5.733 34.535a141.456 141.456 0 01-67.603.557l-.177-.043s13.175-46.717 7.567-60.975l-.306-43.877z"/>
    <path fill="#FEB8B8" d="M369.503 177.105a19.942 19.942 0 00-5.886-14.073 19.975 19.975 0 00-28.208.052 19.943 19.943 0 000 28.189 19.974 19.974 0 0028.208.053 19.942 19.942 0 005.886-14.073v-.148zM316.079 260.698a7.149 7.149 0 004.375 4.178 7.15 7.15 0 006.015-.669l35.789 18.906 1.159-8.712-34.777-20.494a7.19 7.19 0 00-9.299-2.18 7.19 7.19 0 00-3.263 8.971h.001z"/>
    <path fill="#FEB8B8" d="M363.772 262.204a7.156 7.156 0 01-10.907 1.152l-39.063 10.623.34-11.061L353 252.832a7.194 7.194 0 0111.962 4.407 7.182 7.182 0 01-1.191 4.966l.001-.001z"/>
    <path fill="#AFF6E5" d="M378.952 216.451l7.616-.477s8.917 11.758 3.971 24.518c0 0 .857 45.834-18.893 43.951-19.749-1.883-25.99-1.883-25.99-1.883l5.928-16.525 13.262-4.092s-4.087-18.018 3.65-25.515l10.456-19.977zM323.956 216.049l-1.077-5.514s-15.874-.374-19.013 23.666c0 0-14.276 35.977-.284 40.609 13.993 4.633 29.385 0 29.385 0l-1.159-15.866-15.395-3.139s7.953-10.283 3.623-19.202l3.92-20.554z"/>
    <path fill="#2A5248" d="M356.451 186.902c-1.468-.576-3.094-.546-4.646-.83-5.55-1.022-9.83-6.677-9.303-12.291a6.731 6.731 0 00.036-2.203c-.384-1.602-2.166-2.462-3.803-2.654-1.637-.192-3.328.054-4.92-.372-2.459-.658-4.296-2.899-4.918-5.365a12.141 12.141 0 01.791-7.46l.763 1.591a6.171 6.171 0 001.564-3.026 3.9 3.9 0 013.224 2.041c.987.44.866-1.812 1.85-2.258a1.847 1.847 0 011.31.17c2.167.727 4.466-.363 6.613-1.145a25.25 25.25 0 0111.633-1.328c2.61.318 5.245 1.089 7.276 2.756a16.581 16.581 0 013.841 5.16c2.507 4.682 4.395 9.847 4.344 15.159a22.001 22.001 0 01-3.847 12.172c-1.28 1.862-5.416 8.321-8.165 7.61-3.453-.891.491-6.107-3.643-7.727z"/>
  </g>
  <defs>
    <clipPath id="clip0">
      <path fill="#fff" d="M0 0h410v484H0z"/>
    </clipPath>
  </defs>
</svg>
