<svg xmlns="http://www.w3.org/2000/svg" width="106" height="106" fill="none" viewBox="0 0 106 106">
  <path fill="#EAEAEA" d="M.75 14.531C.75 6.92 6.919.75 14.531.75H81.47C89.08.75 95.25 6.919 95.25 14.531v33.584a33.856 33.856 0 00-6.563-3.265V14.531a7.219 7.219 0 00-7.218-7.219H14.53a7.219 7.219 0 00-7.219 7.22v66.937a7.219 7.219 0 007.22 7.219H44.85a33.856 33.856 0 003.265 6.562H14.531A13.782 13.782 0 01.75 81.469V14.53z"/>
  <path fill="#EAEAEA" d="M11.25 41.438a11.812 11.812 0 1123.625 0 11.812 11.812 0 01-23.625 0zm11.813-5.25a5.25 5.25 0 100 10.5 5.25 5.25 0 000-10.5zM23.063 61.125a11.812 11.812 0 100 23.625 11.812 11.812 0 000-23.625zm-5.25 11.813a5.25 5.25 0 1110.499 0 5.25 5.25 0 01-10.5 0zM40.128 38.156a3.282 3.282 0 013.28-3.281h38.06a3.281 3.281 0 010 6.563h-38.06a3.282 3.282 0 01-3.28-3.282zM14.565 14.124a3.282 3.282 0 000 6.563h66.851a3.281 3.281 0 000-6.563h-66.85zM105.75 76.875c0 15.947-12.928 28.875-28.875 28.875S48 92.822 48 76.875 60.928 48 76.875 48s28.875 12.928 28.875 28.875zM79.5 58.5a2.625 2.625 0 00-5.25 0v15.75H58.5a2.625 2.625 0 000 5.25h15.75v15.75a2.625 2.625 0 005.25 0V79.5h15.75a2.625 2.625 0 000-5.25H79.5V58.5z"/>
</svg>
