<svg xmlns="http://www.w3.org/2000/svg" width="37" height="37" fill="none" viewBox="0 0 37 37">
  <path fill="#AFF6E5" d="M30.938 33.75H2.813V5.625h14.062V2.812H2.812A2.815 2.815 0 000 5.626V33.75a2.815 2.815 0 002.813 2.813h28.125a2.815 2.815 0 002.812-2.813V19.687h-2.813V33.75z"/>
  <path fill="#AFF6E5" d="M30.938 33.75H2.813V5.625h14.062V2.812H2.812A2.815 2.815 0 000 5.626V33.75a2.815 2.815 0 002.813 2.813h28.125a2.815 2.815 0 002.812-2.813V19.687h-2.813V33.75z"/>
  <path fill="#AFF6E5" d="M30.938 5.625V0h-2.813v5.625H22.5v2.813h5.625v5.624h2.813V8.439h5.625V5.624h-5.626z"/>
</svg>
