<svg xmlns="http://www.w3.org/2000/svg" width="191" height="208" fill="none" viewBox="0 0 191 208">
  <path fill="#AFF6E5" d="M.179.884V207.48h190.795V.884H.179zm95.397 14.913a6.553 6.553 0 01-3.646-1.109 6.575 6.575 0 01-2.418-2.952 6.594 6.594 0 011.423-7.17 6.56 6.56 0 017.153-1.427 6.566 6.566 0 012.946 2.423 6.592 6.592 0 01-.816 8.308 6.557 6.557 0 01-4.642 1.927z"/>
  <path fill="#F2F2F2" d="M121.614 44.09H21.403a3.06 3.06 0 01-2.166-.9 3.074 3.074 0 010-4.342 3.06 3.06 0 012.166-.9h100.211c.812 0 1.591.324 2.166.9a3.076 3.076 0 010 4.342 3.06 3.06 0 01-2.166.9zM121.614 75.67H21.403a3.06 3.06 0 01-2.166-.898 3.074 3.074 0 010-4.343 3.06 3.06 0 012.166-.899h100.211c.812 0 1.591.323 2.166.9a3.076 3.076 0 010 4.342c-.575.575-1.354.899-2.166.899zM121.614 107.253H21.403a3.06 3.06 0 01-2.166-.9 3.075 3.075 0 010-4.342 3.059 3.059 0 012.166-.899h100.211a3.06 3.06 0 012.166.899 3.076 3.076 0 010 4.342c-.575.576-1.354.9-2.166.9zM121.614 138.834H21.403a3.059 3.059 0 01-2.166-.899 3.075 3.075 0 010-4.342 3.06 3.06 0 012.166-.9h100.211c.812 0 1.591.324 2.166.9a3.073 3.073 0 01-2.166 5.241zM121.614 170.416H21.403a3.063 3.063 0 01-3.064-3.071c0-.814.323-1.595.898-2.171a3.063 3.063 0 012.166-.899h100.211a3.064 3.064 0 013.063 3.07 3.064 3.064 0 01-3.063 3.071z"/>
  <path fill="#52E9C5" d="M104.11 44.09H20.965a3.06 3.06 0 01-2.166-.9 3.074 3.074 0 010-4.342 3.06 3.06 0 012.166-.9h83.145c.812 0 1.591.324 2.166.9a3.076 3.076 0 010 4.342 3.06 3.06 0 01-2.166.9zM78.291 75.67H20.965a3.06 3.06 0 01-2.166-.898 3.074 3.074 0 010-4.343 3.06 3.06 0 012.166-.899h57.326a3.06 3.06 0 012.166.9 3.075 3.075 0 010 4.342 3.06 3.06 0 01-2.166.899zM46.784 107.253H20.965a3.06 3.06 0 01-2.166-.9 3.075 3.075 0 010-4.342 3.058 3.058 0 012.166-.899h25.819c.812 0 1.591.323 2.166.899a3.075 3.075 0 010 4.342 3.06 3.06 0 01-2.166.9zM111.986 138.834h-91.02a3.058 3.058 0 01-2.167-.899 3.075 3.075 0 010-4.342 3.06 3.06 0 012.166-.9h91.021a3.07 3.07 0 012.166 5.242 3.057 3.057 0 01-2.166.899zM91.857 170.416H20.965a3.063 3.063 0 01-3.063-3.071 3.063 3.063 0 013.063-3.07h70.892a3.063 3.063 0 013.063 3.07 3.063 3.063 0 01-3.063 3.071zM163.186 37.948h-.875v6.141h.875v-6.14zM169.75 44.528a3.497 3.497 0 01-3.234-2.166 3.518 3.518 0 01.758-3.825 3.502 3.502 0 013.816-.76 3.507 3.507 0 012.161 3.242 3.514 3.514 0 01-1.027 2.48 3.5 3.5 0 01-2.474 1.029zm0-6.141a2.623 2.623 0 00-2.426 1.625 2.632 2.632 0 001.914 3.588 2.62 2.62 0 002.695-1.12 2.633 2.633 0 00-2.183-4.093zM163.186 69.53h-.875v6.14h.875v-6.14zM169.75 76.11a3.497 3.497 0 01-3.234-2.167 3.518 3.518 0 01.758-3.824 3.502 3.502 0 013.816-.76 3.508 3.508 0 012.161 3.242 3.514 3.514 0 01-1.027 2.48 3.5 3.5 0 01-2.474 1.029zm0-6.141a2.624 2.624 0 00-2.426 1.624 2.632 2.632 0 001.914 3.588 2.62 2.62 0 002.695-1.118 2.632 2.632 0 00-2.183-4.094zM163.186 101.112h-.875v6.141h.875v-6.141zM169.75 107.691a3.501 3.501 0 01-3.234-2.166 3.519 3.519 0 01.758-3.824 3.495 3.495 0 015.387.532 3.515 3.515 0 01-.437 4.429 3.499 3.499 0 01-2.474 1.029zm0-6.141a2.625 2.625 0 00-2.426 1.625 2.628 2.628 0 00-.149 1.52 2.631 2.631 0 002.063 2.068 2.618 2.618 0 002.695-1.119 2.632 2.632 0 00-2.183-4.094zM163.186 132.693h-.875v6.141h.875v-6.141zM169.75 139.273a3.5 3.5 0 01-3.234-2.166 3.52 3.52 0 01.758-3.825 3.495 3.495 0 015.387.532 3.515 3.515 0 01-.437 4.43 3.499 3.499 0 01-2.474 1.029zm0-6.141a2.624 2.624 0 00-2.426 1.625 2.627 2.627 0 00-.149 1.52 2.631 2.631 0 002.063 2.068 2.618 2.618 0 002.695-1.119 2.634 2.634 0 00-2.183-4.094zM163.186 164.275h-.875v6.141h.875v-6.141zM169.75 170.855a3.494 3.494 0 01-3.234-2.167 3.515 3.515 0 01.758-3.824 3.496 3.496 0 015.387.532 3.516 3.516 0 01-.437 4.43 3.507 3.507 0 01-2.474 1.029zm0-6.141a2.624 2.624 0 00-2.426 1.624 2.632 2.632 0 001.914 3.589 2.627 2.627 0 003.138-2.582 2.642 2.642 0 00-.77-1.86 2.625 2.625 0 00-1.856-.771z"/>
  <path fill="#52E9C5" d="M169.75 42.773c.967 0 1.75-.785 1.75-1.754 0-.97-.783-1.755-1.75-1.755S168 40.05 168 41.02c0 .969.783 1.754 1.75 1.754zM169.75 137.518c.967 0 1.75-.785 1.75-1.754s-.783-1.755-1.75-1.755-1.75.786-1.75 1.755c0 .969.783 1.754 1.75 1.754zM169.75 169.1c.967 0 1.75-.786 1.75-1.755 0-.969-.783-1.754-1.75-1.754s-1.75.785-1.75 1.754.783 1.755 1.75 1.755z"/>
  <path fill="#AFF6E5" d="M95.576 12.288a3.067 3.067 0 003.064-3.07 3.067 3.067 0 00-3.064-3.07 3.067 3.067 0 00-3.063 3.07 3.067 3.067 0 003.063 3.07z"/>
</svg>
