<svg xmlns="http://www.w3.org/2000/svg" width="242" height="144" fill="none" viewBox="0 0 242 144">
  <g clip-path="url(#clip0)">
    <path fill="#CFFCF1" d="M114.243 49.537l-5.436-16.308-.092-.284 22.893-14.484 1.217 1.643 6.375 8.6-2.33 6.955-6.024 17.97-.264.79 11.155 8.307a29.95 29.95 0 011.108 2.246c3.33 7.6-1.599 7.256-1.599 7.256l-22.687-9.74-4.316-12.951z"/>
    <path fill="#CFFCF1" d="M126.254 52.573l-1.001-3.002-4.908-14.737-1.023-3.073-.858-2.57 11.193-7.085 11.699-7.4 7.592 10.243-2.301 6.867-1.118 3.337-1.729 5.162-3.47 10.349 11.155 8.307a21.668 21.668 0 011.986 4.7c.193.684.285 1.393.273 2.104a2.575 2.575 0 01-2.75 2.698l-22.687-9.74-2.053-6.16z"/>
    <path fill="#000" d="M125.189 53.238l-1.316-13.902 6.56-3.563.43.793-6.038 3.279 1.221 12.888 13.413 9.2-.508.745-13.762-9.44zM139.5 52.772l-.535.726 13.536 10.018.535-.726L139.5 52.772z" opacity=".15"/>
    <path fill="#fff" d="M138.693 66.399l-68.096-47.95L1.806 65.951 69.57 94.615 138.693 66.4z"/>
    <path fill="#CFFCF1" d="M89.94 25.698l22.929-22.457L153.88.466l50.978 48.76L242 69.586l-10.464 30.823-44.83-21.316c-9.127-.672-15-3.705-18.714-6.896a22.611 22.611 0 01-3.433-3.682 16.546 16.546 0 01-2.538-4.747L143.8 40.315l-3.757-4.84-2.433-3.132-7.953-10.237-.572-.736-13.511-.358-7.032 9.247-4.939 6.489a11.008 11.008 0 01-2.357 6.272c-4.43 5.397-13.41 4.343-13.41 4.343l2.103-21.665z"/>
    <path fill="#fff" d="M2.068 65.908h.05L30.24 77.937l38.48 16.458a1.24 1.24 0 00.95.005l39.7-16.497 28.815-11.976.044-.02h.049a1.717 1.717 0 011.715 1.718v74.6a1.718 1.718 0 01-1.715 1.718H2.068a1.718 1.718 0 01-1.715-1.718v-74.6a1.721 1.721 0 011.715-1.717z"/>
    <path fill="#3F3D56" d="M1.946 66.399c.05 0 .099-.016.14-.044L69.838 19.09a1.227 1.227 0 011.404.003l67.264 47.26a.245.245 0 00.281-.402l-67.264-47.26a1.718 1.718 0 00-1.965-.003L1.806 65.952a.245.245 0 00.14.447z"/>
    <path fill="#E6E6E6" d="M134.662 68.074L70.473 20.423 5.799 71.464l61.368 36.441 33.318-7.607 34.178-32.224z"/>
    <path fill="#52E9C5" d="M97.672 130.413h31.711a1.481 1.481 0 001.482-1.482c0-.393-.155-.77-.432-1.049a1.479 1.479 0 00-1.046-.437H97.672a1.48 1.48 0 00-1.482 1.482 1.483 1.483 0 001.477 1.486h.005zM118.005 124.033h11.377a1.482 1.482 0 001.483-1.482c0-.393-.155-.77-.432-1.049a1.479 1.479 0 00-1.046-.437h-11.382a1.481 1.481 0 00-1.482 1.482 1.487 1.487 0 001.478 1.486h.004z"/>
    <path fill="#fff" d="M69.57 94.615c.242 0 .48-.047.704-.138l39.587-16.453V26.522a1.721 1.721 0 00-1.715-1.718H32.201a1.716 1.716 0 00-1.715 1.718V78.06l.075.031L68.847 94.47c.229.096.475.146.724.146z"/>
    <path fill="#3F3D56" d="M68.799 94.582L30.364 78.14V26.522a1.844 1.844 0 011.837-1.84h75.945a1.84 1.84 0 011.838 1.84v51.584L70.321 94.59a1.989 1.989 0 01-1.522-.01zm40.695-68.06a1.354 1.354 0 00-1.348-1.35H32.201a1.348 1.348 0 00-1.347 1.35v51.295L68.99 94.13c.365.154.776.156 1.144.007l39.36-16.36V26.523z"/>
    <path fill="#3F3D56" d="M.72 67.626v74.599a1.722 1.722 0 001.716 1.718h136.211a1.72 1.72 0 001.715-1.718v-74.6a1.717 1.717 0 00-1.715-1.718h-.049l-.044.02-28.815 11.976-39.7 16.497a1.24 1.24 0 01-.95-.005l-38.48-16.458-28.124-12.03h-.05a1.715 1.715 0 00-1.714 1.719zm.49 0a1.232 1.232 0 011.177-1.227l28.222 12.07 38.286 16.378c.425.179.905.182 1.333.007l39.511-16.421 28.954-12.034a1.228 1.228 0 011.179 1.227v74.599a1.225 1.225 0 01-1.225 1.227H2.436a1.225 1.225 0 01-1.225-1.227v-74.6z"/>
    <path fill="#52E9C5" d="M38.85 44.056h26.948a1.958 1.958 0 001.96-1.963 1.965 1.965 0 00-1.96-1.963H38.849a1.959 1.959 0 00-1.96 1.963 1.965 1.965 0 001.96 1.963zM38.866 35.713H51.85a1.958 1.958 0 001.96-1.964 1.964 1.964 0 00-1.96-1.963H38.866a1.958 1.958 0 00-1.96 1.963 1.965 1.965 0 001.96 1.964z"/>
    <path fill="#CCC" d="M50.018 63.687h41.158a1.958 1.958 0 001.96-1.963 1.965 1.965 0 00-1.96-1.963H50.018a1.958 1.958 0 00-1.96 1.963 1.965 1.965 0 001.96 1.963zM50.018 72.767h41.158a1.958 1.958 0 001.96-1.963 1.965 1.965 0 00-1.96-1.963H50.018a1.958 1.958 0 00-1.96 1.963 1.965 1.965 0 001.96 1.963z"/>
    <path fill="#000" d="M145.529 36.153l8.174-.473L186.365 76l-11.539-1.769-6.834-1.034a22.611 22.611 0 01-3.433-3.682l-7.594-2.258-3.494-2.587c.219.84-7.942-28.517-7.942-28.517z" opacity=".1"/>
    <path fill="#CFFCF1" d="M93.276 33.87a5.779 5.779 0 012.283-3.766 5.76 5.76 0 014.269-1.059l8.714 1.214 10.781 1.503 8.331 1.16 9.956-.58 9.037-.526 5.339-.308 35.502 43.825-30.523-9.076-3.494-2.587-15.301-11.32s-5.013-.925-12.917-2.78c-1.175-.28-14.479-3.623-20.729-5.442a38.484 38.484 0 01-3.278-1.108c-6.968-2.747-8.362-6.269-7.97-9.15z"/>
    <path fill="#000" d="M98.267 40.345c.031-.003 3.142-.392 4.469-2.673.895-1.537.805-3.607-.267-6.152l.83-.35c1.189 2.823 1.26 5.166.212 6.962-1.56 2.672-4.996 3.093-5.141 3.11l-.103-.897zM129.717 33.253l-.002-.902 16.013-.026-16.882-10.572.477-.765 19.536 12.234-19.142.03z" opacity=".15"/>
  </g>
  <defs>
    <clipPath id="clip0">
      <path fill="#fff" d="M0 0h242v144H0z"/>
    </clipPath>
  </defs>
</svg>
