<svg xmlns="http://www.w3.org/2000/svg" width="32" height="28" fill="none" viewBox="0 0 32 28">
  <path fill="#949494" d="M28 2a2 2 0 012 2v20a2 2 0 01-2 2H4a2 2 0 01-2-2V4a2 2 0 012-2h24zM4 0a4 4 0 00-4 4v20a4 4 0 004 4h24a4 4 0 004-4V4a4 4 0 00-4-4H4z"/>
  <path fill="#949494" d="M5 6c0-.53.263-1.04.732-1.414C6.202 4.21 6.837 4 7.5 4h5c.663 0 1.299.21 1.768.586C14.737 4.96 15 5.47 15 6v16c0 .53-.263 1.04-.732 1.414-.47.375-1.105.586-1.768.586h-5c-.663 0-1.299-.21-1.768-.586C5.263 23.04 5 22.53 5 22V6zM17 6c0-.53.263-1.04.732-1.414C18.202 4.21 18.837 4 19.5 4h5c.663 0 1.299.21 1.768.586C26.737 4.96 27 5.47 27 6v16c0 .53-.263 1.04-.732 1.414-.47.375-1.105.586-1.768.586h-5c-.663 0-1.299-.21-1.768-.586C17.263 23.04 17 22.53 17 22V6z"/>
</svg>
