<svg xmlns="http://www.w3.org/2000/svg" width="32" height="28" fill="none" viewBox="0 0 32 28">
  <path fill="#949494" d="M28 2a2 2 0 012 2v20a2 2 0 01-2 2H4a2 2 0 01-2-2V4a2 2 0 012-2h24zM4 0a4 4 0 00-4 4v20a4 4 0 004 4h24a4 4 0 004-4V4a4 4 0 00-4-4H4z"/>
  <path fill="#949494" d="M6 6c0-.53.527-1.04 1.464-1.414C8.402 4.21 9.674 4 11 4h10c1.326 0 2.598.21 3.535.586C25.473 4.96 26 5.47 26 6v16c0 .53-.527 1.04-1.465 1.414-.937.375-2.209.586-3.535.586H11c-1.326 0-2.598-.21-3.536-.586C6.527 23.04 6 22.53 6 22V6z"/>
</svg>
