<svg xmlns="http://www.w3.org/2000/svg" width="295" height="81" fill="none" viewBox="0 0 295 81">
  <path fill="#E4E4E4" d="M40.35 80.867c22.284 0 40.35-18.05 40.35-40.316C80.7 18.285 62.633.235 40.35.235 18.064.235 0 18.285 0 40.55c0 22.266 18.065 40.316 40.35 40.316z"/>
  <path fill="#84F3D9" d="M40.35 74.147c18.57 0 33.624-15.041 33.624-33.596 0-18.555-15.054-33.597-33.625-33.597-18.57 0-33.624 15.042-33.624 33.597s15.054 33.596 33.624 33.596z"/>
  <path fill="#E4E4E4" d="M147.5 80.867c22.284 0 40.35-18.05 40.35-40.316 0-22.266-18.066-40.316-40.35-40.316-22.284 0-40.35 18.05-40.35 40.316 0 22.266 18.066 40.316 40.35 40.316z"/>
  <path fill="#fff" d="M147.5 74.147c18.57 0 33.625-15.041 33.625-33.596 0-18.555-15.055-33.597-33.625-33.597s-33.625 15.042-33.625 33.597S128.93 74.147 147.5 74.147z"/>
  <path fill="#E4E4E4" d="M254.65 80.867c22.285 0 40.35-18.05 40.35-40.316C295 18.285 276.935.235 254.65.235c-22.284 0-40.349 18.05-40.349 40.316 0 22.266 18.065 40.316 40.349 40.316z"/>
  <path fill="#fff" d="M254.65 74.147c18.571 0 33.625-15.041 33.625-33.596 0-18.555-15.054-33.597-33.625-33.597-18.57 0-33.624 15.042-33.624 33.597s15.054 33.596 33.624 33.596zM37.492 52.7a3.695 3.695 0 01-2.918-1.425l-5.157-6.626a3.694 3.694 0 01.648-5.181l.185-.145a3.702 3.702 0 015.186.648 3.285 3.285 0 003.82 1.031c.439-.176.835-.445 1.16-.788L50.89 29.167a3.695 3.695 0 015.224-.14l.17.161a3.691 3.691 0 01.142 5.22l-16.252 17.14a3.69 3.69 0 01-2.682 1.152z"/>
</svg>
