<svg xmlns="http://www.w3.org/2000/svg" width="175" height="249" fill="none" viewBox="0 0 175 249">
  <path fill="#2A5248" d="M11.11 84.596l1.228-.41L1.07 50.7a20.355 20.355 0 011.09-15.605 20.503 20.503 0 0111.855-10.267h.001L85.28 1.064a20.616 20.616 0 0115.676 1.085 20.47 20.47 0 0110.313 11.802v.001l61.816 183.701a20.364 20.364 0 01-1.09 15.605 20.452 20.452 0 01-4.902 6.308 20.554 20.554 0 01-6.953 3.959l-.001.001-71.264 23.765a20.618 20.618 0 01-15.675-1.086 20.466 20.466 0 01-10.313-11.802L20.36 108.022l-1.228.409-8.022-23.835z"/>
  <path fill="#fff" d="M14.929 30.133l9.302-3.102a7.224 7.224 0 00.634 3.457 7.258 7.258 0 002.193 2.754 7.302 7.302 0 006.756 1.13l40.825-13.615a7.29 7.29 0 002.975-1.891 7.22 7.22 0 00.23-9.714l8.689-2.898a15.395 15.395 0 0111.707.81 15.283 15.283 0 017.701 8.815l61.728 183.431a15.204 15.204 0 01-.815 11.654 15.307 15.307 0 01-8.853 7.667l-71.607 23.88a15.394 15.394 0 01-11.707-.811 15.283 15.283 0 01-7.701-8.814L5.26 49.454A15.201 15.201 0 016.075 37.8a15.312 15.312 0 018.854-7.667z"/>
  <path fill="#2A5248" d="M32.836 91.672l76.418-25.483a1.49 1.49 0 00.941-1.881l-6.35-18.872a1.49 1.49 0 00-.75-.857 1.502 1.502 0 00-1.14-.08L25.537 69.985a1.482 1.482 0 00-.941 1.88l6.35 18.871c.127.374.396.682.75.858a1.5 1.5 0 001.14.08zm69.309-46.608a.902.902 0 011.134.562l6.35 18.87a.889.889 0 01-.565 1.13L32.646 91.108a.9.9 0 01-1.133-.562l-6.351-18.87a.889.889 0 01.564-1.128l76.419-25.485zM57.96 166.338l76.419-25.484a1.484 1.484 0 00.941-1.881l-11.754-34.93a1.5 1.5 0 00-1.89-.937l-76.418 25.483a1.493 1.493 0 00-.86.747 1.48 1.48 0 00-.08 1.134l11.754 34.931c.126.373.396.681.75.857.354.176.764.204 1.139.08zm63.906-62.669a.9.9 0 011.134.563l11.754 34.93a.888.888 0 01-.565 1.128l-76.418 25.484a.896.896 0 01-1.134-.562l-11.754-34.931a.888.888 0 01.564-1.128l76.419-25.484z"/>
  <path fill="#E6E6E6" d="M43.263 120.786l33.963-11.327c.375-.126.685-.394.861-.747a1.48 1.48 0 00.08-1.134l-6.35-18.87a1.49 1.49 0 00-.75-.858 1.5 1.5 0 00-1.14-.08L35.964 99.099a1.482 1.482 0 00-.941 1.881l6.35 18.87a1.495 1.495 0 001.89.937zm26.854-32.45a.9.9 0 011.134.561l6.35 18.871a.89.89 0 01-.565 1.129l-33.964 11.326a.896.896 0 01-1.133-.563l-6.35-18.87a.89.89 0 01.565-1.129l33.963-11.326zM115.775 197.824l33.962-11.326a1.49 1.49 0 00.861-.746c.177-.353.206-.761.08-1.134l-11.849-35.213a1.488 1.488 0 00-.75-.857 1.501 1.501 0 00-1.139-.08l-33.963 11.326a1.491 1.491 0 00-.861.747 1.48 1.48 0 00-.08 1.134l11.85 35.213a1.496 1.496 0 001.889.936zm21.356-48.792a.9.9 0 011.133.562l11.85 35.212a.895.895 0 01-.565 1.129l-33.964 11.326a.895.895 0 01-1.133-.562l-11.849-35.213a.887.887 0 01.564-1.128l33.964-11.326zM73.886 211.794l33.964-11.327a1.488 1.488 0 00.941-1.881l-11.849-35.212a1.497 1.497 0 00-1.89-.937L61.09 173.763a1.496 1.496 0 00-.861.747 1.482 1.482 0 00-.08 1.134l11.85 35.212c.125.374.395.682.749.858.354.176.764.204 1.14.08zm21.356-48.793a.896.896 0 011.133.562l11.85 35.212a.89.89 0 01-.565 1.129L73.697 211.23a.896.896 0 01-1.133-.562l-11.85-35.212a.89.89 0 01.565-1.129l33.963-11.326z"/>
  <path fill="#52E9C5" d="M114.533 125.303c-3.358 0-6.08-2.71-6.08-6.053 0-3.342 2.722-6.052 6.08-6.052 3.357 0 6.079 2.71 6.079 6.052 0 3.343-2.722 6.053-6.079 6.053z"/>
  <path fill="#E6E6E6" d="M99.933 119.865a1.013 1.013 0 011.283.636 1.005 1.005 0 01-.639 1.276l-45.294 15.105a1.015 1.015 0 01-1.283-.636 1.01 1.01 0 01.297-1.082c.1-.087.217-.153.343-.195l45.293-15.104zM101.863 125.603a1.02 1.02 0 011.086.294 1.009 1.009 0 01.143 1.112 1.024 1.024 0 01-.585.507l-19.49 6.5a1.014 1.014 0 01-1.283-.637 1.003 1.003 0 01.64-1.276l19.489-6.5zM122.685 128.863c.731-.244 1.47-.013 1.647.516.178.529-.273 1.155-1.003 1.398l-62.49 20.84c-.732.244-1.47.013-1.648-.516-.178-.529.273-1.155 1.004-1.398l62.49-20.84zM124.616 134.602c.731-.244 1.47-.013 1.647.516.178.528-.273 1.154-1.003 1.398l-62.491 20.84c-.73.243-1.47.012-1.647-.516-.178-.529.273-1.155 1.004-1.399l62.49-20.839z"/>
  <path fill="#52E9C5" d="M93.487 64.632c-3.358 0-6.08-2.71-6.08-6.052 0-3.342 2.722-6.052 6.08-6.052 3.357 0 6.08 2.71 6.08 6.052 0 3.343-2.723 6.052-6.08 6.052z"/>
  <path fill="#E6E6E6" d="M78.886 59.194a1.017 1.017 0 011.283.636 1.003 1.003 0 01-.295 1.081c-.1.087-.218.154-.344.196L34.237 76.21a1.017 1.017 0 01-1.282-.636 1.005 1.005 0 01.638-1.277l45.293-15.104zM80.817 64.933a1.019 1.019 0 011.087.294 1.008 1.008 0 01-.443 1.619l-19.49 6.5a1.017 1.017 0 01-1.282-.637 1.006 1.006 0 01.639-1.277l19.49-6.5zM85.182 106.811l31.86-10.625-11.848-10.428a1.615 1.615 0 00-1.583-.32 1.614 1.614 0 00-1.069 1.204l-1.345 6.591-8.606-7.576a2.024 2.024 0 00-1.981-.4 2.021 2.021 0 00-1.34 1.508l-4.088 20.046zm30.691-10.862l-29.9 9.971 3.883-19.036a1.415 1.415 0 01.944-1.062 1.43 1.43 0 011.396.282l9.381 8.256 1.55-7.6a1.019 1.019 0 011.671-.557l11.075 9.746z"/>
  <path fill="#E6E6E6" d="M85.15 106.817l33.964-11.326a1.49 1.49 0 00.861-.746 1.48 1.48 0 00.08-1.135l-6.35-18.87a1.5 1.5 0 00-1.889-.937L77.852 85.129a1.492 1.492 0 00-.861.747c-.176.353-.205.76-.08 1.134l6.35 18.87a1.49 1.49 0 001.89.937zm26.855-32.45a.901.901 0 011.134.561l6.35 18.871a.889.889 0 01-.565 1.128L84.96 106.254a.901.901 0 01-1.133-.562l-6.35-18.871a.889.889 0 01.564-1.129l33.964-11.326zM132.148 158.143a1.003 1.003 0 01.774.053 1.01 1.01 0 01.455 1.353.994.994 0 01-.586.507l-19.489 6.499a1.017 1.017 0 01-1.282-.636 1.005 1.005 0 01.638-1.277l19.49-6.499zM134.044 163.778a1.005 1.005 0 01.774.053c.12.059.226.141.313.241a.998.998 0 01.143 1.112 1.012 1.012 0 01-.586.507l-19.49 6.501a1.017 1.017 0 01-1.28-.637 1.007 1.007 0 01.636-1.276l19.49-6.501zM78.68 202.119a1.017 1.017 0 01-1.282-.637 1.009 1.009 0 01.638-1.276l19.49-6.5a1.012 1.012 0 011.281.637 1.01 1.01 0 01-.638 1.276l-19.49 6.5zM76.784 196.483a1.006 1.006 0 01-.775-.052 1.014 1.014 0 01-.56-.974 1.008 1.008 0 01.69-.887l19.49-6.499a1.005 1.005 0 01.775.053 1.012 1.012 0 01.56.973 1.005 1.005 0 01-.69.887l-19.49 6.499zM46.344 106.22a1.006 1.006 0 01-.774-.053 1.01 1.01 0 01-.56-.973 1.01 1.01 0 01.69-.887l19.49-6.5a1.016 1.016 0 011.284.636 1.004 1.004 0 01-.64 1.278l-19.49 6.499zM47.963 110.733a1.006 1.006 0 01-.774-.052 1.011 1.011 0 01-.56-.974 1.006 1.006 0 01.69-.886l19.49-6.5a1.024 1.024 0 01.774.053 1.011 1.011 0 01.56.973.996.996 0 01-.347.692c-.1.087-.217.153-.343.195l-19.49 6.499z"/>
</svg>
