<svg xmlns="http://www.w3.org/2000/svg" width="28" height="28" fill="none" viewBox="0 0 28 28">
  <path fill="#949494" d="M18.773 17.359l-3.359-3.36 3.359-3.358a.25.25 0 000-.353l-1.06-1.061a.25.25 0 00-.354 0L14 12.586l-3.359-3.359a.25.25 0 00-.353 0l-1.061 1.06a.25.25 0 000 .354L12.586 14l-3.359 3.359a.25.25 0 000 .353l1.06 1.06a.25.25 0 00.354 0L14 15.415l3.359 3.359a.25.25 0 00.353 0l1.061-1.06a.25.25 0 000-.354z"/>
  <path fill="#949494" d="M14 0C6.269 0 0 6.269 0 14s6.269 14 14 14 14-6.269 14-14S21.731 0 14 0zm0 25.625C7.581 25.625 2.375 20.419 2.375 14S7.581 2.375 14 2.375 25.625 7.581 25.625 14 20.419 25.625 14 25.625z"/>
</svg>
