<svg xmlns="http://www.w3.org/2000/svg" width="39" height="39" fill="none" viewBox="0 0 39 39">
  <path fill="#fff" d="M21.619 38.606l-3.056-7.181c2.943-1.088 5.7-2.55 8.25-4.256l-5.194 11.437zM7.575 20.437L.394 17.381l11.437-5.194c-1.706 2.55-3.169 5.307-4.256 8.25zM33.038 4.5c.525 0 .993 0 1.387.094.319 2.606-.037 7.968-6.187 14.118-3.188 3.207-6.994 5.663-11.27 7.294l-4.03-3.937c1.724-4.331 4.18-8.138 7.35-11.306C25.462 5.587 30.075 4.5 33.038 4.5zm0-3.75c-3.713 0-9.338 1.294-15.413 7.369-4.106 4.106-6.563 8.625-8.156 12.581a3.785 3.785 0 00.862 3.994l3.994 3.975c.713.712 1.669 1.143 2.663 1.143.43 0 .88-.112 1.312-.28 4.722-1.801 9.01-4.581 12.581-8.157C41.494 10.762 37.52 1.481 37.52 1.481S35.813.75 33.038.75zm-8.775 13.988a3.757 3.757 0 010-5.307 3.757 3.757 0 015.306 0c1.444 1.463 1.462 3.844 0 5.307a3.757 3.757 0 01-5.306 0zM13.65 27.994l-2.644-2.644 2.644 2.644zM8.7 38.25l6.825-6.825a5.727 5.727 0 01-1.819-.844l-7.65 7.669H8.7zm-7.95 0h2.644l8.944-8.925-2.663-2.644L.75 35.606v2.644zm0-5.306l7.669-7.65a5.547 5.547 0 01-.844-1.819L.75 30.3v2.644z"/>
</svg>
